<?xml version="1.0" encoding="UTF-8" standalone="no"?>
<!DOCTYPE svg PUBLIC "-//W3C//DTD SVG 1.1//EN"
 "http://www.w3.org/Graphics/SVG/1.1/DTD/svg11.dtd">
<!-- Generated by graphviz version 2.38.0 (20140413.2041)
 -->
<!-- Title: dg Pages: 1 -->
<svg width="245pt" height="504pt"
 viewBox="0.00 0.00 245.36 504.20" xmlns="http://www.w3.org/2000/svg" xmlns:xlink="http://www.w3.org/1999/xlink">
<g id="graph0" class="graph" transform="scale(1 1) rotate(0) translate(4 500.2)">
<title>dg</title>
<polygon fill="white" stroke="none" points="-4,4 -4,-500.2 241.365,-500.2 241.365,4 -4,4"/>
<!-- 0 -->
<g id="node1" class="node"><title>0</title>
<ellipse fill="black" stroke="black" cx="196.865" cy="-494.4" rx="1.8" ry="1.8"/>
</g>
<!-- 1 -->
<g id="node2" class="node"><title>1</title>
<polygon fill="none" stroke="black" points="233.865,-455.6 159.865,-455.6 159.865,-419.6 233.865,-419.6 233.865,-455.6"/>
<text text-anchor="middle" x="196.865" y="-433.9" font-family="Times New Roman,serif" font-size="14.00">x := a * b;</text>
</g>
<!-- 0&#45;&gt;1 -->
<g id="edge1" class="edge"><title>0&#45;&gt;1</title>
<path fill="none" stroke="black" d="M196.865,-492.449C196.865,-489.085 196.865,-477.325 196.865,-465.65"/>
<polygon fill="black" stroke="black" points="200.365,-465.625 196.865,-455.625 193.365,-465.625 200.365,-465.625"/>
</g>
<!-- 2 -->
<g id="node3" class="node"><title>2</title>
<ellipse fill="none" stroke="black" cx="196.865" cy="-364.6" rx="18" ry="18"/>
<text text-anchor="middle" x="196.865" y="-360.9" font-family="Times New Roman,serif" font-size="14.00">2</text>
</g>
<!-- 1&#45;&gt;2 -->
<g id="edge2" class="edge"><title>1&#45;&gt;2</title>
<path fill="none" stroke="black" d="M196.865,-419.413C196.865,-411.389 196.865,-401.647 196.865,-392.669"/>
<polygon fill="black" stroke="black" points="200.365,-392.629 196.865,-382.629 193.365,-392.629 200.365,-392.629"/>
</g>
<!-- 3 -->
<g id="node4" class="node"><title>3</title>
<polygon fill="none" stroke="black" points="103.865,-309.6 0.135054,-291.6 103.865,-273.6 207.594,-291.6 103.865,-309.6"/>
<text text-anchor="middle" x="103.865" y="-287.9" font-family="Times New Roman,serif" font-size="14.00">(20 * c) &gt; (a * b)</text>
</g>
<!-- 2&#45;&gt;3 -->
<g id="edge3" class="edge"><title>2&#45;&gt;3</title>
<path fill="none" stroke="black" d="M182.74,-352.817C168.854,-342.215 147.32,-325.776 130.259,-312.75"/>
<polygon fill="black" stroke="black" points="132.368,-309.957 122.296,-306.671 128.12,-315.521 132.368,-309.957"/>
</g>
<!-- 4 -->
<g id="node5" class="node"><title>4</title>
<polygon fill="none" stroke="black" points="207.865,-222.6 127.865,-222.6 127.865,-186.6 207.865,-186.6 207.865,-222.6"/>
<text text-anchor="middle" x="167.865" y="-200.9" font-family="Times New Roman,serif" font-size="14.00">a := 20 + a;</text>
</g>
<!-- 3&#45;&gt;4 -->
<g id="edge4" class="edge"><title>3&#45;&gt;4</title>
<path fill="none" stroke="black" d="M115.307,-275.404C124.624,-263.029 137.974,-245.299 148.887,-230.805"/>
<polygon fill="black" stroke="black" points="151.763,-232.804 154.982,-222.71 146.171,-228.593 151.763,-232.804"/>
<text text-anchor="middle" x="155.365" y="-244.4" font-family="Times New Roman,serif" font-size="14.00">True</text>
</g>
<!-- 6 -->
<g id="node7" class="node"><title>6</title>
<polygon fill="none" stroke="black" points="109.865,-222.6 23.8648,-222.6 23.8648,-186.6 109.865,-186.6 109.865,-222.6"/>
<text text-anchor="middle" x="66.8648" y="-200.9" font-family="Times New Roman,serif" font-size="14.00">z := 20 * 30;</text>
</g>
<!-- 3&#45;&gt;6 -->
<g id="edge5" class="edge"><title>3&#45;&gt;6</title>
<path fill="none" stroke="black" d="M96.9054,-274.612C91.7171,-262.693 84.5126,-246.142 78.4596,-232.237"/>
<polygon fill="black" stroke="black" points="81.5012,-230.455 74.3008,-222.683 75.0829,-233.249 81.5012,-230.455"/>
<text text-anchor="middle" x="102.865" y="-244.4" font-family="Times New Roman,serif" font-size="14.00">False</text>
</g>
<!-- 5 -->
<g id="node6" class="node"><title>5</title>
<polygon fill="none" stroke="black" points="237.365,-149.6 166.365,-149.6 166.365,-113.6 237.365,-113.6 237.365,-149.6"/>
<text text-anchor="middle" x="201.865" y="-127.9" font-family="Times New Roman,serif" font-size="14.00">c := c &#45; 1;</text>
</g>
<!-- 4&#45;&gt;5 -->
<g id="edge6" class="edge"><title>4&#45;&gt;5</title>
<path fill="none" stroke="black" d="M176.095,-186.413C180.063,-178.128 184.908,-168.01 189.321,-158.793"/>
<polygon fill="black" stroke="black" points="192.548,-160.16 193.71,-149.629 186.234,-157.136 192.548,-160.16"/>
</g>
<!-- 5&#45;&gt;2 -->
<g id="edge7" class="edge"><title>5&#45;&gt;2</title>
<path fill="none" stroke="black" d="M207.947,-149.859C211.315,-160.338 215.156,-174.067 216.865,-186.6 224.248,-240.766 226.509,-255.791 216.865,-309.6 215.122,-319.324 211.745,-329.586 208.255,-338.523"/>
<polygon fill="black" stroke="black" points="204.943,-337.372 204.347,-347.95 211.41,-340.052 204.943,-337.372"/>
</g>
<!-- 7 -->
<g id="node8" class="node"><title>7</title>
<polygon fill="none" stroke="black" points="96.3648,-149.6 37.3648,-149.6 37.3648,-113.6 96.3648,-113.6 96.3648,-149.6"/>
<text text-anchor="middle" x="66.8648" y="-127.9" font-family="Times New Roman,serif" font-size="14.00">a := 20;</text>
</g>
<!-- 6&#45;&gt;7 -->
<g id="edge8" class="edge"><title>6&#45;&gt;7</title>
<path fill="none" stroke="black" d="M66.8648,-186.413C66.8648,-178.389 66.8648,-168.647 66.8648,-159.669"/>
<polygon fill="black" stroke="black" points="70.3649,-159.629 66.8648,-149.629 63.3649,-159.629 70.3649,-159.629"/>
</g>
<!-- 8 -->
<g id="node9" class="node"><title>8</title>
<polygon fill="none" stroke="black" points="103.865,-76.6 29.8648,-76.6 29.8648,-40.6 103.865,-40.6 103.865,-76.6"/>
<text text-anchor="middle" x="66.8648" y="-54.9" font-family="Times New Roman,serif" font-size="14.00">u := a * b;</text>
</g>
<!-- 7&#45;&gt;8 -->
<g id="edge9" class="edge"><title>7&#45;&gt;8</title>
<path fill="none" stroke="black" d="M66.8648,-113.413C66.8648,-105.389 66.8648,-95.6475 66.8648,-86.6691"/>
<polygon fill="black" stroke="black" points="70.3649,-86.6288 66.8648,-76.6288 63.3649,-86.6289 70.3649,-86.6288"/>
</g>
<!-- 9 -->
<g id="node10" class="node"><title>9</title>
<ellipse fill="black" stroke="black" cx="66.8648" cy="-1.8" rx="1.8" ry="1.8"/>
</g>
<!-- 8&#45;&gt;9 -->
<g id="edge10" class="edge"><title>8&#45;&gt;9</title>
<path fill="none" stroke="black" d="M66.8648,-40.5613C66.8648,-31.8739 66.8648,-21.5568 66.8648,-13.9038"/>
<polygon fill="black" stroke="black" points="70.3649,-13.7627 66.8648,-3.76275 63.3649,-13.7628 70.3649,-13.7627"/>
</g>
</g>
</svg>
