<?xml version="1.0" encoding="UTF-8" standalone="no"?>
<!DOCTYPE svg PUBLIC "-//W3C//DTD SVG 1.1//EN"
 "http://www.w3.org/Graphics/SVG/1.1/DTD/svg11.dtd">
<!-- Generated by graphviz version 2.38.0 (20140413.2041)
 -->
<!-- Title: cfg1 Pages: 1 -->
<svg width="190pt" height="496pt"
 viewBox="0.00 0.00 189.50 496.00" xmlns="http://www.w3.org/2000/svg" xmlns:xlink="http://www.w3.org/1999/xlink">
<g id="graph0" class="graph" transform="scale(1 1) rotate(0) translate(4 492)">
<title>cfg1</title>
<polygon fill="white" stroke="none" points="-4,4 -4,-492 185.5,-492 185.5,4 -4,4"/>
<!-- 0 -->
<g id="node1" class="node"><title>0</title>
<polygon fill="none" stroke="black" points="126.5,-488 52.5,-488 52.5,-452 126.5,-452 126.5,-488"/>
<text text-anchor="middle" x="89.5" y="-466.3" font-family="Times New Roman,serif" font-size="14.00">x := a * b;</text>
</g>
<!-- 1 -->
<g id="node2" class="node"><title>1</title>
<polygon fill="none" stroke="black" points="89.5,-415 2.35975,-397 89.5,-379 176.64,-397 89.5,-415"/>
<text text-anchor="middle" x="89.5" y="-393.3" font-family="Times New Roman,serif" font-size="14.00">a * b &gt; 20 * c</text>
</g>
<!-- 0&#45;&gt;1 -->
<g id="edge1" class="edge"><title>0&#45;&gt;1</title>
<path fill="none" stroke="black" d="M89.5,-451.813C89.5,-443.789 89.5,-434.047 89.5,-425.069"/>
<polygon fill="black" stroke="black" points="93.0001,-425.029 89.5,-415.029 86.0001,-425.029 93.0001,-425.029"/>
</g>
<!-- 2 -->
<g id="node3" class="node"><title>2</title>
<polygon fill="none" stroke="black" points="81,-328 0,-328 0,-292 81,-292 81,-328"/>
<text text-anchor="middle" x="40.5" y="-306.3" font-family="Times New Roman,serif" font-size="14.00">y := 20 + a;</text>
</g>
<!-- 1&#45;&gt;2 -->
<g id="edge2" class="edge"><title>1&#45;&gt;2</title>
<path fill="none" stroke="black" d="M80.7398,-380.804C73.7396,-368.661 63.7665,-351.36 55.5004,-337.021"/>
<polygon fill="black" stroke="black" points="58.39,-335.025 50.3634,-328.11 52.3255,-338.522 58.39,-335.025"/>
<text text-anchor="middle" x="82" y="-349.8" font-family="Times New Roman,serif" font-size="14.00">True</text>
</g>
<!-- 3 -->
<g id="node4" class="node"><title>3</title>
<polygon fill="none" stroke="black" points="181.5,-328 99.5,-328 99.5,-292 181.5,-292 181.5,-328"/>
<text text-anchor="middle" x="140.5" y="-306.3" font-family="Times New Roman,serif" font-size="14.00">y := 30 + c;</text>
</g>
<!-- 1&#45;&gt;3 -->
<g id="edge3" class="edge"><title>1&#45;&gt;3</title>
<path fill="none" stroke="black" d="M98.6178,-380.804C105.904,-368.661 116.284,-351.36 124.887,-337.021"/>
<polygon fill="black" stroke="black" points="128.09,-338.486 130.234,-328.11 122.088,-334.884 128.09,-338.486"/>
<text text-anchor="middle" x="133.5" y="-349.8" font-family="Times New Roman,serif" font-size="14.00">False</text>
</g>
<!-- 4 -->
<g id="node5" class="node"><title>4</title>
<ellipse fill="none" stroke="black" cx="99.5" cy="-237" rx="27" ry="18"/>
<text text-anchor="middle" x="99.5" y="-233.3" font-family="Times New Roman,serif" font-size="14.00">4</text>
</g>
<!-- 2&#45;&gt;4 -->
<g id="edge4" class="edge"><title>2&#45;&gt;4</title>
<path fill="none" stroke="black" d="M54.7823,-291.813C62.4556,-282.579 72.0207,-271.068 80.3329,-261.065"/>
<polygon fill="black" stroke="black" points="83.2522,-263.029 86.9515,-253.101 77.8684,-258.555 83.2522,-263.029"/>
</g>
<!-- 3&#45;&gt;4 -->
<g id="edge5" class="edge"><title>3&#45;&gt;4</title>
<path fill="none" stroke="black" d="M130.575,-291.813C125.546,-283.105 119.349,-272.372 113.814,-262.788"/>
<polygon fill="black" stroke="black" points="116.803,-260.965 108.772,-254.056 110.741,-264.466 116.803,-260.965"/>
</g>
<!-- 5 -->
<g id="node6" class="node"><title>5</title>
<polygon fill="none" stroke="black" points="142.5,-182 56.5,-182 56.5,-146 142.5,-146 142.5,-182"/>
<text text-anchor="middle" x="99.5" y="-160.3" font-family="Times New Roman,serif" font-size="14.00">z := 20 * 30;</text>
</g>
<!-- 4&#45;&gt;5 -->
<g id="edge6" class="edge"><title>4&#45;&gt;5</title>
<path fill="none" stroke="black" d="M99.5,-218.813C99.5,-210.789 99.5,-201.047 99.5,-192.069"/>
<polygon fill="black" stroke="black" points="103,-192.029 99.5,-182.029 96.0001,-192.029 103,-192.029"/>
</g>
<!-- 6 -->
<g id="node7" class="node"><title>6</title>
<polygon fill="none" stroke="black" points="129,-109 70,-109 70,-73 129,-73 129,-109"/>
<text text-anchor="middle" x="99.5" y="-87.3" font-family="Times New Roman,serif" font-size="14.00">a := 20;</text>
</g>
<!-- 5&#45;&gt;6 -->
<g id="edge7" class="edge"><title>5&#45;&gt;6</title>
<path fill="none" stroke="black" d="M99.5,-145.813C99.5,-137.789 99.5,-128.047 99.5,-119.069"/>
<polygon fill="black" stroke="black" points="103,-119.029 99.5,-109.029 96.0001,-119.029 103,-119.029"/>
</g>
<!-- 7 -->
<g id="node8" class="node"><title>7</title>
<polygon fill="none" stroke="black" points="136.5,-36 62.5,-36 62.5,-0 136.5,-0 136.5,-36"/>
<text text-anchor="middle" x="99.5" y="-14.3" font-family="Times New Roman,serif" font-size="14.00">u := a * b;</text>
</g>
<!-- 6&#45;&gt;7 -->
<g id="edge8" class="edge"><title>6&#45;&gt;7</title>
<path fill="none" stroke="black" d="M99.5,-72.8129C99.5,-64.7895 99.5,-55.0475 99.5,-46.0691"/>
<polygon fill="black" stroke="black" points="103,-46.0288 99.5,-36.0288 96.0001,-46.0289 103,-46.0288"/>
</g>
</g>
</svg>
