<?xml version="1.0" encoding="UTF-8" standalone="no"?>
<!DOCTYPE svg PUBLIC "-//W3C//DTD SVG 1.1//EN"
 "http://www.w3.org/Graphics/SVG/1.1/DTD/svg11.dtd">
<!-- Generated by graphviz version 2.38.0 (20140413.2041)
 -->
<!-- Title: CFG1 Pages: 1 -->
<svg width="216pt" height="496pt"
 viewBox="0.00 0.00 215.73 496.00" xmlns="http://www.w3.org/2000/svg" xmlns:xlink="http://www.w3.org/1999/xlink">
<g id="graph0" class="graph" transform="scale(1 1) rotate(0) translate(4 492)">
<title>CFG1</title>
<polygon fill="white" stroke="none" points="-4,4 -4,-492 211.73,-492 211.73,4 -4,4"/>
<!-- 0 -->
<g id="node1" class="node"><title>0</title>
<polygon fill="none" stroke="black" points="140.865,-488 66.8648,-488 66.8648,-452 140.865,-452 140.865,-488"/>
<text text-anchor="middle" x="103.865" y="-466.3" font-family="Times New Roman,serif" font-size="14.00">x := a * b;</text>
</g>
<!-- 1 -->
<g id="node2" class="node"><title>1</title>
<polygon fill="none" stroke="black" points="103.865,-415 0.135054,-397 103.865,-379 207.594,-397 103.865,-415"/>
<text text-anchor="middle" x="103.865" y="-393.3" font-family="Times New Roman,serif" font-size="14.00">(a * b) &gt; (20 * c)</text>
</g>
<!-- 0&#45;&gt;1 -->
<g id="edge1" class="edge"><title>0&#45;&gt;1</title>
<path fill="none" stroke="black" d="M103.865,-451.813C103.865,-443.789 103.865,-434.047 103.865,-425.069"/>
<polygon fill="black" stroke="black" points="107.365,-425.029 103.865,-415.029 100.365,-425.029 107.365,-425.029"/>
</g>
<!-- 2 -->
<g id="node3" class="node"><title>2</title>
<polygon fill="none" stroke="black" points="95.3648,-328 14.3648,-328 14.3648,-292 95.3648,-292 95.3648,-328"/>
<text text-anchor="middle" x="54.8648" y="-306.3" font-family="Times New Roman,serif" font-size="14.00">y := 20 + a;</text>
</g>
<!-- 1&#45;&gt;2 -->
<g id="edge2" class="edge"><title>1&#45;&gt;2</title>
<path fill="none" stroke="black" d="M94.8774,-380.41C87.8969,-368.301 78.0621,-351.24 69.89,-337.064"/>
<polygon fill="black" stroke="black" points="72.8331,-335.161 64.8065,-328.246 66.7686,-338.657 72.8331,-335.161"/>
<text text-anchor="middle" x="96.3648" y="-349.8" font-family="Times New Roman,serif" font-size="14.00">True</text>
</g>
<!-- 3 -->
<g id="node4" class="node"><title>3</title>
<polygon fill="none" stroke="black" points="195.865,-328 113.865,-328 113.865,-292 195.865,-292 195.865,-328"/>
<text text-anchor="middle" x="154.865" y="-306.3" font-family="Times New Roman,serif" font-size="14.00">y := 30 + c;</text>
</g>
<!-- 1&#45;&gt;3 -->
<g id="edge3" class="edge"><title>1&#45;&gt;3</title>
<path fill="none" stroke="black" d="M113.219,-380.41C120.484,-368.301 130.721,-351.24 139.226,-337.064"/>
<polygon fill="black" stroke="black" points="142.374,-338.622 144.517,-328.246 136.371,-335.02 142.374,-338.622"/>
<text text-anchor="middle" x="147.865" y="-349.8" font-family="Times New Roman,serif" font-size="14.00">False</text>
</g>
<!-- 4 -->
<g id="node5" class="node"><title>4</title>
<ellipse fill="none" stroke="black" cx="113.865" cy="-237" rx="27" ry="18"/>
<text text-anchor="middle" x="113.865" y="-233.3" font-family="Times New Roman,serif" font-size="14.00">4</text>
</g>
<!-- 2&#45;&gt;4 -->
<g id="edge4" class="edge"><title>2&#45;&gt;4</title>
<path fill="none" stroke="black" d="M69.147,-291.813C76.8204,-282.579 86.3855,-271.068 94.6977,-261.065"/>
<polygon fill="black" stroke="black" points="97.617,-263.029 101.316,-253.101 92.2332,-258.555 97.617,-263.029"/>
</g>
<!-- 3&#45;&gt;4 -->
<g id="edge5" class="edge"><title>3&#45;&gt;4</title>
<path fill="none" stroke="black" d="M144.94,-291.813C139.911,-283.105 133.713,-272.372 128.179,-262.788"/>
<polygon fill="black" stroke="black" points="131.168,-260.965 123.136,-254.056 125.106,-264.466 131.168,-260.965"/>
</g>
<!-- 5 -->
<g id="node6" class="node"><title>5</title>
<polygon fill="none" stroke="black" points="156.865,-182 70.8648,-182 70.8648,-146 156.865,-146 156.865,-182"/>
<text text-anchor="middle" x="113.865" y="-160.3" font-family="Times New Roman,serif" font-size="14.00">z := 20 * 30;</text>
</g>
<!-- 4&#45;&gt;5 -->
<g id="edge6" class="edge"><title>4&#45;&gt;5</title>
<path fill="none" stroke="black" d="M113.865,-218.813C113.865,-210.789 113.865,-201.047 113.865,-192.069"/>
<polygon fill="black" stroke="black" points="117.365,-192.029 113.865,-182.029 110.365,-192.029 117.365,-192.029"/>
</g>
<!-- 6 -->
<g id="node7" class="node"><title>6</title>
<polygon fill="none" stroke="black" points="143.365,-109 84.3648,-109 84.3648,-73 143.365,-73 143.365,-109"/>
<text text-anchor="middle" x="113.865" y="-87.3" font-family="Times New Roman,serif" font-size="14.00">a := 20;</text>
</g>
<!-- 5&#45;&gt;6 -->
<g id="edge7" class="edge"><title>5&#45;&gt;6</title>
<path fill="none" stroke="black" d="M113.865,-145.813C113.865,-137.789 113.865,-128.047 113.865,-119.069"/>
<polygon fill="black" stroke="black" points="117.365,-119.029 113.865,-109.029 110.365,-119.029 117.365,-119.029"/>
</g>
<!-- 7 -->
<g id="node8" class="node"><title>7</title>
<polygon fill="none" stroke="black" points="150.865,-36 76.8648,-36 76.8648,-0 150.865,-0 150.865,-36"/>
<text text-anchor="middle" x="113.865" y="-14.3" font-family="Times New Roman,serif" font-size="14.00">u := a * b;</text>
</g>
<!-- 6&#45;&gt;7 -->
<g id="edge8" class="edge"><title>6&#45;&gt;7</title>
<path fill="none" stroke="black" d="M113.865,-72.8129C113.865,-64.7895 113.865,-55.0475 113.865,-46.0691"/>
<polygon fill="black" stroke="black" points="117.365,-46.0288 113.865,-36.0288 110.365,-46.0289 117.365,-46.0288"/>
</g>
</g>
</svg>
