<?xml version="1.0" encoding="UTF-8" standalone="no"?>
<!DOCTYPE svg PUBLIC "-//W3C//DTD SVG 1.1//EN"
 "http://www.w3.org/Graphics/SVG/1.1/DTD/svg11.dtd">
<!-- Generated by graphviz version 2.38.0 (20140413.2041)
 -->
<!-- Title: CFG2 Pages: 1 -->
<svg width="245pt" height="423pt"
 viewBox="0.00 0.00 245.36 423.00" xmlns="http://www.w3.org/2000/svg" xmlns:xlink="http://www.w3.org/1999/xlink">
<g id="graph0" class="graph" transform="scale(1 1) rotate(0) translate(4 419)">
<title>CFG2</title>
<polygon fill="white" stroke="none" points="-4,4 -4,-419 241.365,-419 241.365,4 -4,4"/>
<!-- 0 -->
<g id="node1" class="node"><title>0</title>
<polygon fill="none" stroke="black" points="233.865,-415 159.865,-415 159.865,-379 233.865,-379 233.865,-415"/>
<text text-anchor="middle" x="196.865" y="-393.3" font-family="Times New Roman,serif" font-size="14.00">x := a * b;</text>
</g>
<!-- 1 -->
<g id="node2" class="node"><title>1</title>
<ellipse fill="none" stroke="black" cx="196.865" cy="-324" rx="27" ry="18"/>
<text text-anchor="middle" x="196.865" y="-320.3" font-family="Times New Roman,serif" font-size="14.00">1</text>
</g>
<!-- 0&#45;&gt;1 -->
<g id="edge1" class="edge"><title>0&#45;&gt;1</title>
<path fill="none" stroke="black" d="M196.865,-378.813C196.865,-370.789 196.865,-361.047 196.865,-352.069"/>
<polygon fill="black" stroke="black" points="200.365,-352.029 196.865,-342.029 193.365,-352.029 200.365,-352.029"/>
</g>
<!-- 2 -->
<g id="node3" class="node"><title>2</title>
<polygon fill="none" stroke="black" points="103.865,-269 0.135054,-251 103.865,-233 207.594,-251 103.865,-269"/>
<text text-anchor="middle" x="103.865" y="-247.3" font-family="Times New Roman,serif" font-size="14.00">(20 * c) &gt; (a * b)</text>
</g>
<!-- 1&#45;&gt;2 -->
<g id="edge2" class="edge"><title>1&#45;&gt;2</title>
<path fill="none" stroke="black" d="M179.807,-309.978C166.003,-299.439 146.318,-284.41 130.448,-272.295"/>
<polygon fill="black" stroke="black" points="132.158,-269.197 122.086,-265.911 127.911,-274.761 132.158,-269.197"/>
</g>
<!-- 3 -->
<g id="node4" class="node"><title>3</title>
<polygon fill="none" stroke="black" points="207.865,-182 127.865,-182 127.865,-146 207.865,-146 207.865,-182"/>
<text text-anchor="middle" x="167.865" y="-160.3" font-family="Times New Roman,serif" font-size="14.00">a := 20 + a;</text>
</g>
<!-- 2&#45;&gt;3 -->
<g id="edge3" class="edge"><title>2&#45;&gt;3</title>
<path fill="none" stroke="black" d="M115.307,-234.804C124.624,-222.429 137.974,-204.699 148.887,-190.205"/>
<polygon fill="black" stroke="black" points="151.763,-192.204 154.982,-182.11 146.171,-187.993 151.763,-192.204"/>
<text text-anchor="middle" x="153.365" y="-203.8" font-family="Times New Roman,serif" font-size="14.00">True</text>
</g>
<!-- 5 -->
<g id="node6" class="node"><title>5</title>
<polygon fill="none" stroke="black" points="109.865,-182 23.8648,-182 23.8648,-146 109.865,-146 109.865,-182"/>
<text text-anchor="middle" x="66.8648" y="-160.3" font-family="Times New Roman,serif" font-size="14.00">z := 20 * 30;</text>
</g>
<!-- 2&#45;&gt;5 -->
<g id="edge4" class="edge"><title>2&#45;&gt;5</title>
<path fill="none" stroke="black" d="M96.9054,-234.012C91.7171,-222.093 84.5126,-205.542 78.4596,-191.637"/>
<polygon fill="black" stroke="black" points="81.5012,-189.855 74.3008,-182.083 75.0829,-192.649 81.5012,-189.855"/>
</g>
<!-- 4 -->
<g id="node5" class="node"><title>4</title>
<polygon fill="none" stroke="black" points="237.365,-109 166.365,-109 166.365,-73 237.365,-73 237.365,-109"/>
<text text-anchor="middle" x="201.865" y="-87.3" font-family="Times New Roman,serif" font-size="14.00">c := c &#45; 1;</text>
</g>
<!-- 3&#45;&gt;4 -->
<g id="edge5" class="edge"><title>3&#45;&gt;4</title>
<path fill="none" stroke="black" d="M176.095,-145.813C180.063,-137.528 184.908,-127.41 189.321,-118.193"/>
<polygon fill="black" stroke="black" points="192.548,-119.56 193.71,-109.029 186.234,-116.536 192.548,-119.56"/>
</g>
<!-- 4&#45;&gt;1 -->
<g id="edge6" class="edge"><title>4&#45;&gt;1</title>
<path fill="none" stroke="black" d="M207.947,-109.259C211.315,-119.738 215.156,-133.467 216.865,-146 224.248,-200.166 226.509,-215.191 216.865,-269 215.173,-278.438 211.942,-288.383 208.562,-297.131"/>
<polygon fill="black" stroke="black" points="205.314,-295.828 204.757,-306.408 211.79,-298.484 205.314,-295.828"/>
</g>
<!-- 6 -->
<g id="node7" class="node"><title>6</title>
<polygon fill="none" stroke="black" points="96.3648,-109 37.3648,-109 37.3648,-73 96.3648,-73 96.3648,-109"/>
<text text-anchor="middle" x="66.8648" y="-87.3" font-family="Times New Roman,serif" font-size="14.00">a := 20;</text>
</g>
<!-- 5&#45;&gt;6 -->
<g id="edge7" class="edge"><title>5&#45;&gt;6</title>
<path fill="none" stroke="black" d="M66.8648,-145.813C66.8648,-137.789 66.8648,-128.047 66.8648,-119.069"/>
<polygon fill="black" stroke="black" points="70.3649,-119.029 66.8648,-109.029 63.3649,-119.029 70.3649,-119.029"/>
</g>
<!-- 7 -->
<g id="node8" class="node"><title>7</title>
<polygon fill="none" stroke="black" points="103.865,-36 29.8648,-36 29.8648,-0 103.865,-0 103.865,-36"/>
<text text-anchor="middle" x="66.8648" y="-14.3" font-family="Times New Roman,serif" font-size="14.00">u := a * b;</text>
</g>
<!-- 6&#45;&gt;7 -->
<g id="edge8" class="edge"><title>6&#45;&gt;7</title>
<path fill="none" stroke="black" d="M66.8648,-72.8129C66.8648,-64.7895 66.8648,-55.0475 66.8648,-46.0691"/>
<polygon fill="black" stroke="black" points="70.3649,-46.0288 66.8648,-36.0288 63.3649,-46.0289 70.3649,-46.0288"/>
</g>
</g>
</svg>
