<?xml version="1.0" encoding="UTF-8" standalone="no"?>
<!DOCTYPE svg PUBLIC "-//W3C//DTD SVG 1.1//EN"
 "http://www.w3.org/Graphics/SVG/1.1/DTD/svg11.dtd">
<!-- Generated by graphviz version 2.38.0 (20140413.2041)
 -->
<!-- Title: cfg2 Pages: 1 -->
<svg width="222pt" height="423pt"
 viewBox="0.00 0.00 222.00 423.00" xmlns="http://www.w3.org/2000/svg" xmlns:xlink="http://www.w3.org/1999/xlink">
<g id="graph0" class="graph" transform="scale(1 1) rotate(0) translate(4 419)">
<title>cfg2</title>
<polygon fill="white" stroke="none" points="-4,4 -4,-419 218,-419 218,4 -4,4"/>
<!-- 0 -->
<g id="node1" class="node"><title>0</title>
<polygon fill="none" stroke="black" points="214,-415 140,-415 140,-379 214,-379 214,-415"/>
<text text-anchor="middle" x="177" y="-393.3" font-family="Times New Roman,serif" font-size="14.00">x := a * b;</text>
</g>
<!-- 1 -->
<g id="node2" class="node"><title>1</title>
<ellipse fill="none" stroke="black" cx="177" cy="-324" rx="27" ry="18"/>
<text text-anchor="middle" x="177" y="-320.3" font-family="Times New Roman,serif" font-size="14.00">1</text>
</g>
<!-- 0&#45;&gt;1 -->
<g id="edge1" class="edge"><title>0&#45;&gt;1</title>
<path fill="none" stroke="black" d="M177,-378.813C177,-370.789 177,-361.047 177,-352.069"/>
<polygon fill="black" stroke="black" points="180.5,-352.029 177,-342.029 173.5,-352.029 180.5,-352.029"/>
</g>
<!-- 2 -->
<g id="node3" class="node"><title>2</title>
<polygon fill="none" stroke="black" points="97,-269 9.85975,-251 97,-233 184.14,-251 97,-269"/>
<text text-anchor="middle" x="97" y="-247.3" font-family="Times New Roman,serif" font-size="14.00">20 * c &gt; a * b</text>
</g>
<!-- 1&#45;&gt;2 -->
<g id="edge2" class="edge"><title>1&#45;&gt;2</title>
<path fill="none" stroke="black" d="M161.195,-308.973C149.58,-298.665 133.606,-284.488 120.499,-272.855"/>
<polygon fill="black" stroke="black" points="122.575,-270.018 112.773,-265.998 117.929,-275.254 122.575,-270.018"/>
</g>
<!-- 3 -->
<g id="node4" class="node"><title>3</title>
<polygon fill="none" stroke="black" points="184,-182 104,-182 104,-146 184,-146 184,-182"/>
<text text-anchor="middle" x="144" y="-160.3" font-family="Times New Roman,serif" font-size="14.00">a := 20 + a;</text>
</g>
<!-- 2&#45;&gt;3 -->
<g id="edge3" class="edge"><title>2&#45;&gt;3</title>
<path fill="none" stroke="black" d="M105.621,-234.41C112.316,-222.301 121.749,-205.24 129.588,-191.064"/>
<polygon fill="black" stroke="black" points="132.688,-192.691 134.464,-182.246 126.562,-189.303 132.688,-192.691"/>
<text text-anchor="middle" x="136.5" y="-203.8" font-family="Times New Roman,serif" font-size="14.00">True</text>
</g>
<!-- 5 -->
<g id="node6" class="node"><title>5</title>
<polygon fill="none" stroke="black" points="86,-182 0,-182 0,-146 86,-146 86,-182"/>
<text text-anchor="middle" x="43" y="-160.3" font-family="Times New Roman,serif" font-size="14.00">z := 20 * 30;</text>
</g>
<!-- 2&#45;&gt;5 -->
<g id="edge4" class="edge"><title>2&#45;&gt;5</title>
<path fill="none" stroke="black" d="M87.3459,-234.804C79.5579,-222.545 68.431,-205.03 59.2713,-190.612"/>
<polygon fill="black" stroke="black" points="62.1865,-188.674 53.8698,-182.11 56.278,-192.427 62.1865,-188.674"/>
<text text-anchor="middle" x="88" y="-203.8" font-family="Times New Roman,serif" font-size="14.00">False</text>
</g>
<!-- 4 -->
<g id="node5" class="node"><title>4</title>
<polygon fill="none" stroke="black" points="213.5,-109 142.5,-109 142.5,-73 213.5,-73 213.5,-109"/>
<text text-anchor="middle" x="178" y="-87.3" font-family="Times New Roman,serif" font-size="14.00">c := c &#45; 1;</text>
</g>
<!-- 3&#45;&gt;4 -->
<g id="edge5" class="edge"><title>3&#45;&gt;4</title>
<path fill="none" stroke="black" d="M152.23,-145.813C156.198,-137.528 161.043,-127.41 165.457,-118.193"/>
<polygon fill="black" stroke="black" points="168.683,-119.56 169.845,-109.029 162.37,-116.536 168.683,-119.56"/>
</g>
<!-- 4&#45;&gt;1 -->
<g id="edge6" class="edge"><title>4&#45;&gt;1</title>
<path fill="none" stroke="black" d="M184.083,-109.259C187.45,-119.738 191.292,-133.467 193,-146 200.383,-200.166 200.846,-214.899 193,-269 191.669,-278.181 189.126,-287.973 186.454,-296.663"/>
<polygon fill="black" stroke="black" points="183.099,-295.663 183.321,-306.256 189.753,-297.836 183.099,-295.663"/>
</g>
<!-- 6 -->
<g id="node7" class="node"><title>6</title>
<polygon fill="none" stroke="black" points="72.5,-109 13.5,-109 13.5,-73 72.5,-73 72.5,-109"/>
<text text-anchor="middle" x="43" y="-87.3" font-family="Times New Roman,serif" font-size="14.00">a := 20;</text>
</g>
<!-- 5&#45;&gt;6 -->
<g id="edge7" class="edge"><title>5&#45;&gt;6</title>
<path fill="none" stroke="black" d="M43,-145.813C43,-137.789 43,-128.047 43,-119.069"/>
<polygon fill="black" stroke="black" points="46.5001,-119.029 43,-109.029 39.5001,-119.029 46.5001,-119.029"/>
</g>
<!-- 7 -->
<g id="node8" class="node"><title>7</title>
<polygon fill="none" stroke="black" points="80,-36 6,-36 6,-0 80,-0 80,-36"/>
<text text-anchor="middle" x="43" y="-14.3" font-family="Times New Roman,serif" font-size="14.00">u := a * b;</text>
</g>
<!-- 6&#45;&gt;7 -->
<g id="edge8" class="edge"><title>6&#45;&gt;7</title>
<path fill="none" stroke="black" d="M43,-72.8129C43,-64.7895 43,-55.0475 43,-46.0691"/>
<polygon fill="black" stroke="black" points="46.5001,-46.0288 43,-36.0288 39.5001,-46.0289 46.5001,-46.0288"/>
</g>
</g>
</svg>
